<?xml version="1.0"?>
<svg xmlns="http://www.w3.org/2000/svg" xmlns:xlink="http://www.w3.org/1999/xlink" version="1.1" id="Capa_1" x="0px" y="0px" viewBox="0 0 512 512" style="enable-background:new 0 0 512 512;" xml:space="preserve" width="512px" height="512px" class=""><g><g>
	<g>
		<path d="M502.379,490.803c-18.938-41.726-52.071-77.316-95.818-102.921c-40.256-23.561-86.93-37.024-135.8-39.283v-191.22    c21.925-5.73,44.833-1.014,68.909,3.941c17.427,3.587,35.188,7.243,53.367,7.243c13.893,0,28.031-2.136,42.446-8.069l9.312-3.834    V24.673l-20.812,8.567c-24.736,10.183-50.715,4.836-78.221-0.826c-24.275-4.998-49.204-10.118-75-5.314V0h-30.124v348.625    c-48.651,2.341-95.108,15.792-135.199,39.256C61.692,413.486,28.558,449.076,9.62,490.802L0,512h512L502.379,490.803z     M270.762,57.875c21.925-5.729,44.833-1.015,68.908,3.941c24.277,4.996,49.202,10.129,75.002,5.321v68.721    c-21.925,5.729-44.832,1.014-68.909-3.941c-24.276-4.996-49.205-10.117-75.001-5.312V57.875z M48.499,481.978    c17.001-26.997,41.595-50.298,72.195-68.208c39.671-23.219,86.459-35.492,135.306-35.492c48.848,0,95.636,12.273,135.306,35.492    c30.6,17.91,55.194,41.211,72.195,68.208H48.499z" data-original="#000000" class="active-path" data-old_color="#ffffff" fill="#ffffff"/>
	</g>
</g></g> </svg>
